<?xml version="1.0" standalone="no"?>
<!DOCTYPE svg PUBLIC "-//W3C//DTD SVG 1.0//EN" "http://www.w3.org/TR/2001/REC-SVG-20010904/DTD/svg10.dtd">
<svg xmlns="http://www.w3.org/2000/svg" xmlns:xlink="http://www.w3.org/1999/xlink" id="body_1" width="31" height="23">

<g transform="matrix(0.9583334 0 0 0.9583334 4.000001 -0)">
    <path d="M21 5L3 5L3 7L21 7L21 5zM3 19L10 19L10 17L3 17L3 19zM3 13L18 13C 19 13 20 13.43 20 15C 20 16.57 19 17 18 17L18 17L16 17L16 15L12 18L16 21L16 19L18 19C 20.95 19 22 17.73 22 15C 22 12.28 21 11 18 11L18 11L3 11L3 13z" stroke="none" fill="#000000" fill-rule="nonzero" />
</g>
</svg>